{"title":"The Confirmation 2016 Movies HDRip XviD ESubs New +Sample ☻rDX☻","uid":13913484,"size":740203817,"categoryP":"video","categoryS":"movies","magnet":"?xt=urn:btih:5e9db1d54b92fd6f7d375da60a9e53f082662b44&amp;dn=The+Confirmation+2016+Movies+HDRip+XviD+ESubs+New+%2BSample+%E2%98%BBrDX%E2%98%BB&amp;tr=udp%3A%2F%2Ftracker.leechers-paradise.org%3A6969&amp;tr=udp%3A%2F%2Fzer0day.ch%3A1337&amp;tr=udp%3A%2F%2Fopen.demonii.com%3A1337&amp;tr=udp%3A%2F%2Ftracker.coppersurfer.tk%3A6969&amp;tr=udp%3A%2F%2Fexodus.desync.com%3A6969","seeders":2,"leechers":0,"uploader":"basicssom","files":3,"time":1458327455,"description":"----------------------------------------------------------------\r\nThe Confirmation 2016 English Movies HDRip XviD ESubs AAC New Source with Sample ~ ☻rDX☻\r\n\r\nSCREEN SHOTS &amp; POSTER:\r\n  \nhttp://mobileshosting.com/2016/3/bike/index.htm  \nhttp://mobileshosting.com/2016/3/bike/1.html  \nhttp://mobileshosting.com/2016/3/bike/2.html  \nhttp://mobileshosting.com/2016/3/bike/3.html  \nhttp://mobileshosting.com/2016/3/bike/4.html  \nhttp://mobileshosting.com/2016/3/bike/5.html  \nhttp://mobileshosting.com/2016/3/bike/6.html  \nhttp://mobileshosting.com/2016/3/bike/7.html  \nhttp://mobileshosting.com/2016/3/bike/8.html  \nhttp://mobileshosting.com/2016/3/bike/9.html  \nhttp://mobileshosting.com/2016/3/bike/10.html\r\n\r\nFormat                                   : Matroska\r\nFormat version                           : Version 4 / Version 2\r\nFile size                                : 694 MiB\r\nDuration                                 : 1h 40mn\r\nOverall bit rate                         : 961 Kbps\r\nMovie name                               : The Confirmation 2016 English Movies HDRip XviD ESubs AAC New Source ☻rDX☻\r\n\r\nVideo\r\nID                                       : 1\r\nFormat                                   : MPEG-4 Visual\r\nFormat profile                           : Advanced   \r\nFormat settings, BVOP                    : Yes\r\nFormat settings, QPel                    : No\r\nFormat settings, GMC                     : No warppoints\r\nFormat settings, Matrix                  : Default (H.263)\r\nCodec ID                                 : V_MS/VFW/FOURCC / XVID\r\nCodec ID/Hint                            : XviD\r\nDuration                                 : 1h 40mn\r\nBit rate                                 : 830 Kbps\r\nWidth                                    : 640 pixels\r\nHeight                                   : 352 pixels\r\nDisplay aspect ratio                     : 16:9\r\nFrame rate mode                          : Constant\r\nFrame rate                               : 23.976 fps\r\nColor space                              : YUV\r\nChroma subsampling                       : 4:2:0\r\nBit depth                                : 8 bits\r\nScan type                                : Progressive\r\nCompression mode                         : Lossy\r\nBits/(Pixel*Frame)                       : 0.154\r\nStream size                              : 599 MiB (86%)\r\nTitle                                    : ☻rDX☻\r\nWriting library                          : XviD 65\r\nDefault                                  : Yes\r\nForced                                   : No\r\n\r\nAudio\r\nID                                       : 2\r\nFormat                                   : MPEG Audio\r\nFormat version                           : Version 1\r\nFormat profile                           : Layer 3\r\nMode                                     : Joint stereo\r\nMode extension                           : MS Stereo\r\nCodec ID                                 : A_MPEG/L3\r\nCodec ID/Hint                            : MP3\r\nDuration                                 : 1h 41mn\r\nBit rate mode                            : Constant\r\nBit rate                                 : 112 Kbps\r\nChannel(s)                               : 2 channels\r\nSampling rate                            : 48.0 KHz\r\nCompression mode                         : Lossy\r\nStream size                              : 81.2 MiB (12%)\r\nTitle                                    : ☻rDX☻\r\nWriting library                          : LAME3.99r\r\nEncoding settings                        : -m j -V 4 -q 3 -lowpass 15.6 -b 112\r\nDefault                                  : Yes\r\nForced                                   : No\r\n\r\nIMDB \nhttp://www.imdb.com/title/tt4210080/","torrent":{"xt":"urn:btih:5e9db1d54b92fd6f7d375da60a9e53f082662b44","amp;dn":"The+Confirmation+2016+Movies+HDRip+XviD+ESubs+New+%2BSample+%E2%98%BBrDX%E2%98%BB","amp;tr":["udp%3A%2F%2Ftracker.leechers-paradise.org%3A6969","udp%3A%2F%2Fzer0day.ch%3A1337","udp%3A%2F%2Fopen.demonii.com%3A1337","udp%3A%2F%2Ftracker.coppersurfer.tk%3A6969","udp%3A%2F%2Fexodus.desync.com%3A6969"],"infoHash":"5e9db1d54b92fd6f7d375da60a9e53f082662b44","infoHashBuffer":{"type":"Buffer","data":[94,157,177,213,75,146,253,111,125,55,93,166,10,158,83,240,130,102,43,68]},"announce":[],"urlList":[]}}